# xmcd CD database file
#
# Track frame offsets:
#	150
#	11848
#	23348
#	35086
#	46971
#	58748
#	69548
#	81171
#	93393
#	106554
#	117614
#	128602
#	140041
#	153687
#	165912
#	178136
#	191181
#	201979
#	214277
#	225178
#	237640
#	249940
#
# Disc length: 3477 seconds
#
# Revision: 1
# Processed by: cddbd v1.5.2PL0 Copyright (c) Steve Scherf et al.
# Submitted via: CDex 1.70beta1
#
DISCID=340d9316
DTITLE=Hank Williams - The King of Hillbilly Music - CD 3
DYEAR=2005
DGENRE=Country
TTITLE0=Weary Blues From Waitin'
TTITLE1=Window Shopping
TTITLE2=Settin' The Woods On Fire
TTITLE3=Take These Chains From My Heart
TTITLE4=You Win Again
TTITLE5=I Can't Help It (If I'm Still In Love With You)
TTITLE6=Kaw-Liga
TTITLE7=Your Cheatin' Heart
TTITLE8=Hey, Good Lookin'
TTITLE9=Crazy Heart
TTITLE10=I Heard That Lonesome Whistle
TTITLE11=Baby, We're Really In Love
TTITLE12=Ramblin' man
TTITLE13=I'm Sorry For You My Friend
TTITLE14=Half As Much
TTITLE15=Jambalaya
TTITLE16=Why Don't You Love Me
TTITLE17=I Could Never be Ashamed Of You
TTITLE18=My Heart Would Know
TTITLE19=Wealth Won't Save Your Soul
TTITLE20=How Can You Refuse Him Now
TTITLE21=I'll Never Get Out Of This World Alive
EXTD=YEAR: 2005
EXTT0=(Williams) 1953
EXTT1=(Joseph) 1952
EXTT2=(Rose/Nelson) 1952
EXTT3=(Heath/Rose) 1952
EXTT4=(Williams) 1952
EXTT5=(Williams) 1951
EXTT6=(Williams/Rose) 1952
EXTT7=(Williams) 1952
EXTT8=(Williams) 1951
EXTT9=(Murray/Rose) 1951
EXTT10=(Davis/Williams) 1951
EXTT11=(Williams) 1951
EXTT12=(Williams) 1951
EXTT13=(Williams) 1951
EXTT14=(Williams) 1951
EXTT15=(Williams) 1952
EXTT16=(Williams) 1950
EXTT17=(Williams) 1950
EXTT18=(Williams) 1951
EXTT19=(Williams) 1950
EXTT20=(Williams) 1949
EXTT21=(Williams/Rose) 1952
PLAYORDER=
